<svg width="10" height="10" viewBox="0 0 10 10" fill="none" xmlns="http://www.w3.org/2000/svg">
<path d="M4.99989 0.224609C2.36252 0.224609 0.224609 2.36252 0.224609 4.99989C0.224609 7.63727 2.36252 9.77518 4.99989 9.77518C7.63727 9.77518 9.77518 7.63727 9.77518 4.99989C9.77518 2.36252 7.63727 0.224609 4.99989 0.224609Z" fill="#FCE0A2"/>
<path d="M0.954971 5.16846C0.799803 5.16846 0.674072 5.29419 0.674072 5.44936C0.674072 5.60453 0.799803 5.73026 0.954971 5.73026C1.11014 5.73026 1.23587 5.60453 1.23587 5.44936C1.23587 5.29419 1.11014 5.16846 0.954971 5.16846Z" fill="white"/>
<path d="M1.29207 7.07861C1.19904 7.07861 1.12354 7.12895 1.12354 7.19098C1.12354 7.253 1.19904 7.30334 1.29207 7.30334C1.38511 7.30334 1.46061 7.253 1.46061 7.19098C1.46061 7.12895 1.38511 7.07861 1.29207 7.07861Z" fill="#F1BC19"/>
<path d="M8.87628 2.80908C8.81425 2.80908 8.76392 2.85942 8.76392 2.92144C8.76392 2.98347 8.81425 3.0338 8.87628 3.0338C8.9383 3.0338 8.98864 2.98347 8.98864 2.92144C8.98864 2.85942 8.9383 2.80908 8.87628 2.80908Z" fill="white"/>
<path d="M2.02246 6.98559V3.01452C2.02246 2.46664 2.46663 2.02246 3.0145 2.02246H6.98561C7.53348 2.02246 7.97752 2.46664 7.97752 3.01439V6.98559C7.97752 7.53347 7.53335 7.97752 6.98561 7.97752H3.0145C2.46663 7.97752 2.02246 7.53347 2.02246 6.98559Z" fill="#E1E0D8"/>
<path d="M6.96606 7.97728C7.47853 7.88789 7.86494 7.48936 7.86494 7.01086V6.5166H6.96606V7.97728Z" fill="#48CC5F"/>
<path d="M7.86494 5.05615H6.96606V6.51683H7.86494V5.05615Z" fill="#F5921E"/>
<path d="M6.97616 3.52594L6.96704 4.99707L7.81639 5.00233L7.8255 3.53121L6.97616 3.52594Z" fill="#55A7F9"/>
<path d="M7.86494 2.98886C7.86494 2.51039 7.47853 2.11186 6.96606 2.02246V3.48313H7.86494V2.98886Z" fill="#B2B0A6"/>
<path d="M4.66293 6.62897C5.13001 6.62897 5.54914 6.41324 5.8427 6.07097C5.83307 6.05203 5.54709 5.50537 4.66293 5.50537C3.77877 5.50537 3.49279 6.05203 3.48315 6.07083C3.77672 6.41324 4.19585 6.62897 4.66293 6.62897Z" fill="#B2B0A6"/>
<path d="M4.60672 4.04492C4.29699 4.04492 4.04492 4.29697 4.04492 4.60672C4.04492 4.91646 4.29699 5.16851 4.60672 5.16851C4.91644 5.16851 5.16851 4.91646 5.16851 4.60672C5.16851 4.29697 4.91644 4.04492 4.60672 4.04492Z" fill="#B2B0A6"/>
<path d="M7.86494 3.48291H6.96606V3.59527H7.86494V3.48291Z" fill="#472B29"/>
<path d="M7.86494 6.4043H6.96606V6.51665H7.86494V6.4043Z" fill="#472B29"/>
<path d="M4.60654 6.62903C3.67724 6.62903 2.92114 5.89814 2.92114 4.99982C2.92114 4.1015 3.67724 3.37061 4.60654 3.37061C5.53584 3.37061 6.29193 4.1015 6.29193 4.99982C6.29193 5.89814 5.53584 6.62903 4.60654 6.62903ZM4.60654 3.49593C3.74867 3.49593 3.05079 4.17055 3.05079 4.99982C3.05079 5.82909 3.74867 6.50371 4.60654 6.50371C5.4644 6.50371 6.16228 5.82909 6.16228 4.99982C6.16228 4.17055 5.4644 3.49593 4.60654 3.49593Z" fill="#472B29"/>
<path d="M4.60672 5.28093C4.29696 5.28093 4.04492 4.9785 4.04492 4.60677C4.04492 4.23504 4.29696 3.93262 4.60672 3.93262C4.91647 3.93262 5.16851 4.23504 5.16851 4.60677C5.16851 4.9785 4.91647 5.28093 4.60672 5.28093ZM4.60672 4.03374C4.34581 4.03374 4.13363 4.29086 4.13363 4.60677C4.13363 4.92268 4.34581 5.17981 4.60672 5.17981C4.86763 5.17981 5.07981 4.92268 5.07981 4.60677C5.07981 4.29086 4.86763 4.03374 4.60672 4.03374Z" fill="#472B29"/>
<path d="M5.75698 6.06717C5.74567 6.04793 5.47126 5.5961 4.60656 5.5961C3.74095 5.5961 3.46745 6.04781 3.45614 6.06705L3.37061 6.02386C3.38295 6.00257 3.68349 5.50537 4.60656 5.50537C5.52845 5.50537 5.83016 6.00257 5.84251 6.02374L5.75698 6.06717Z" fill="#472B29"/>
<path d="M6.96627 2.23063C7.40896 2.23063 7.76909 2.59076 7.76909 3.03345V6.96614C7.76909 7.40883 7.40896 7.76896 6.96627 7.76896H3.03358C2.59088 7.76909 2.23063 7.40883 2.23063 6.96614V3.03358C2.23063 2.59088 2.59076 2.23076 3.03345 2.23076H6.96627V2.23063ZM6.96627 2.05127H3.03358C2.49101 2.05127 2.05127 2.49114 2.05127 3.03358V6.96614C2.05127 7.5087 2.49114 7.94845 3.03358 7.9487H6.96627C7.50883 7.9487 7.94858 7.50883 7.94858 6.9664V3.03358C7.94871 2.49101 7.50883 2.05127 6.96627 2.05127Z" fill="#472B29"/>
</svg>
