<svg xmlns="http://www.w3.org/2000/svg" viewBox="0 0 30 30">
  <path d="M8 2C7.448 2 7 2.448 7 3L7 27C7 27.552 7.448 28 8 28L22 28C22.552 28 23 27.552 23 27L23 3C23 2.448 22.552 2 22 2L8 2 z M 9.5 4L20.5 4C20.776 4 21 4.224 21 4.5L21 16.5C21 16.776 20.776 17 20.5 17L9.5 17C9.224 17 9 16.776 9 16.5L9 4.5C9 4.224 9.224 4 9.5 4 z M 15 19C15.552 19 16 19.448 16 20C16 20.552 15.552 21 15 21C14.448 21 14 20.552 14 20C14 19.448 14.448 19 15 19 z M 10.5 23L12 23L12 24L9.0917969 24C9.2984868 23.41875 9.8481216 23 10.5 23 z M 13 23L17 23L17 24L13 24L13 23 z M 18 23L19.5 23C20.151878 23 20.701513 23.41875 20.908203 24L18 24L18 23 z M 9.0917969 25L12 25L12 26L10.5 26C9.8481216 26 9.2984868 25.58125 9.0917969 25 z M 13 25L17 25L17 26L13 26L13 25 z M 18 25L20.908203 25C20.701513 25.58125 20.151878 26 19.5 26L18 26L18 25 z" fill="#5B5B5B" />
</svg>