<svg xmlns="http://www.w3.org/2000/svg" viewBox="0 0 100 100"><circle cx="13" cy="29" r="2" fill="#ee3e54"/><circle cx="77" cy="13" r="1" fill="#f1bc19"/><circle cx="50" cy="50" r="37" fill="#fce0a2"/><circle cx="83" cy="15" r="4" fill="#f1bc19"/><circle cx="87" cy="24" r="2" fill="#ee3e54"/><circle cx="81" cy="76" r="2" fill="#fbcd59"/><circle cx="15" cy="63" r="4" fill="#fbcd59"/><circle cx="25" cy="87" r="2" fill="#ee3e54"/><circle cx="18.5" cy="53.5" r="2.5" fill="#fff"/><circle cx="21" cy="67" r="1" fill="#f1bc19"/><circle cx="80" cy="34" r="1" fill="#fff"/><path fill="#355ca8" d="M74.088,49.446l-8.323-4.849v14.17h9.234V51.03C74.999,50.378,74.652,49.775,74.088,49.446z"/><path fill="#2d80d3" d="M36.11,32h12.222v13H36.11V32z"/><path fill="#55a7f9" d="M48.332,32h12.222v12H48.332V32z"/><path fill="#6accff" d="M60.5,32h12.277v12H60.5V32z"/><path fill="#2d80d3" d="M48.332,43.5h12.222l-0.055,11h-12L48.332,43.5z"/><path fill="#0553a4" d="M48.5,54.5h12l0.055,11.389H48.332L48.5,54.5"/><path fill="#4792dd" d="M60.555,43.5h12.222v10.889H60.555V43.5z"/><path fill="#0262b8" d="M60.555,54.5h12.222v11.389H60.555V54.5z"/><path fill="#1e65d6" d="M72.777,32.489H36.11v-2.044c0-1.351,1.094-2.444,2.444-2.444h31.778 c1.351,0,2.444,1.094,2.444,2.444V32.489z"/><path fill="#4792dd" d="M37.5,72.5c0.413,0.321,1.376-0.5,1.941-0.5h14.672h18.333c1.351,0,2.444-1.094,2.444-2.444V51.222 L37.5,72.5z"/><polygon fill="#472b29" points="37.624,72.717 37.376,72.283 74.766,51.005 75.014,51.439"/><path fill="#55a7f9" d="M36.11,51.222v18.333c0,1.351,1.094,2.444,2.444,2.444h18.333h14.672c0.565,0,1.528,0.821,1.941,0.5 L36.11,51.222z"/><path fill="#472b29" d="M72.859,73H38.154c-1.733,0-3.145-1.411-3.145-3.145V30.145c0-1.734,1.411-3.145,3.145-3.145h32.678 c1.733,0,3.145,1.411,3.145,3.145v18.466c1.15,0.225,2.021,1.241,2.022,2.456l0,0C76,51.835,76.008,64.51,76.004,69.863 c-0.001,1.125-0.618,2.17-1.609,2.726c-0.204,0.107-0.322,0.163-0.447,0.209c-0.062,0.022-0.126,0.042-0.192,0.061 c-0.161,0.047-0.239,0.069-0.319,0.084C73.249,72.979,73.058,73,72.859,73z M38.154,28.4c-0.962,0-1.744,0.782-1.744,1.744v39.711 c0,0.962,0.782,1.744,1.744,1.744h34.705c0.108,0,0.214-0.013,0.316-0.032c0.034-0.006,0.067-0.017,0.1-0.027 c0.003,0,0.096-0.027,0.099-0.028c0.157-0.052,0.223-0.084,0.288-0.118c0.606-0.339,0.941-0.902,0.941-1.532 c0.004-5.352-0.004-18.025-0.005-18.793c0,0,0,0,0-0.001c0-0.608-0.494-1.103-1.103-1.103h-0.22c-0.387,0-0.7-0.313-0.7-0.7v-19.12 c0-0.962-0.782-1.744-1.744-1.744H38.154z"/><rect width="37" height=".5" x="36" y="32.25" fill="#472b29"/><rect width="12.5" height=".5" x="60.5" y="43.25" fill="#472b29"/><path fill="#472b29" d="M60.5,39.75c-0.138,0-0.25-0.112-0.25-0.25v-7c0-0.138,0.112-0.25,0.25-0.25s0.25,0.112,0.25,0.25v7 C60.75,39.638,60.638,39.75,60.5,39.75z"/><path fill="#472b29" d="M48.5,43.75c-0.138,0-0.25-0.112-0.25-0.25v-11c0-0.138,0.112-0.25,0.25-0.25s0.25,0.112,0.25,0.25 v11C48.75,43.638,48.638,43.75,48.5,43.75z"/><path fill="#472b29" d="M60.5,59.65c-0.138,0-0.25-0.112-0.25-0.25V41.5c0-0.138,0.112-0.25,0.25-0.25s0.25,0.112,0.25,0.25 v17.9C60.75,59.538,60.638,59.65,60.5,59.65z"/><polygon fill="#472b29" points="73.09,52.4 72.59,52.4 72.59,43.75 48.5,43.75 48.5,43.25 73.09,43.25"/><path fill="#472b29" d="M69.1,54.75H50.5c-0.138,0-0.25-0.112-0.25-0.25s0.112-0.25,0.25-0.25h18.6 c0.138,0,0.25,0.112,0.25,0.25S69.237,54.75,69.1,54.75z"/><path fill="#472b29" d="M63.477,67.046c-0.042,0-0.085-0.011-0.124-0.033L35.986,51.439 c-0.12-0.068-0.161-0.221-0.093-0.341c0.067-0.121,0.22-0.162,0.341-0.094l27.366,15.574c0.119,0.068,0.161,0.221,0.093,0.341 C63.647,67,63.563,67.046,63.477,67.046z"/><path fill="#472b29" d="M66.666,68.861c-0.042,0-0.085-0.011-0.124-0.033l-1.073-0.611c-0.12-0.068-0.161-0.221-0.093-0.341 c0.068-0.121,0.221-0.161,0.341-0.094l1.073,0.611c0.12,0.068,0.161,0.221,0.093,0.341C66.837,68.815,66.753,68.861,66.666,68.861z"/><path fill="#472b29" d="M73.5,72.75c-0.042,0-0.085-0.011-0.124-0.033l-5.006-2.849c-0.119-0.068-0.161-0.221-0.093-0.341 c0.068-0.121,0.22-0.162,0.341-0.094l5.006,2.849c0.119,0.068,0.161,0.221,0.093,0.341C73.671,72.705,73.587,72.75,73.5,72.75z"/><path fill="#2d80d3" d="M46.172,63H25.548c-1.424,0-2.578-1.164-2.578-2.6V39.6c0-1.436,1.154-2.6,2.578-2.6h20.624 c1.424,0,2.578,1.164,2.578,2.6v20.8C48.75,61.836,47.596,63,46.172,63z"/><path fill="#2d80d3" d="M25.548,62c-0.87,0-1.578-0.718-1.578-1.6V39.6c0-0.882,0.708-1.6,1.578-1.6h20.624 c0.87,0,1.578,0.718,1.578,1.6v20.8c0,0.882-0.708,1.6-1.578,1.6H25.548z"/><path fill="#472b29" d="M46.172,38.4c0.65,0,1.178,0.538,1.178,1.2v20.8c0,0.662-0.528,1.2-1.178,1.2H25.548 c-0.65,0-1.178-0.538-1.178-1.2V39.6c0-0.662,0.528-1.2,1.178-1.2H46.172 M46.172,37H25.548c-1.424,0-2.578,1.163-2.578,2.6v20.8 c0,1.437,1.154,2.6,2.578,2.6h20.624c1.424,0,2.578-1.163,2.578-2.6V39.6C48.75,38.163,47.596,37,46.172,37L46.172,37z"/><path fill="#fff" d="M35.86,43.511c-3.802,0-6.093,2.905-6.093,6.489s2.282,6.489,6.093,6.489 c3.812,0,6.093-2.905,6.093-6.488C41.953,46.416,39.662,43.511,35.86,43.511z M35.86,54.299c-2.157,0-3.447-1.924-3.447-4.297 s1.296-4.297,3.447-4.297s3.448,1.925,3.448,4.297S38.016,54.299,35.86,54.299z"/><path fill="#472b29" d="M35.86,56.739c-3.734,0-6.343-2.771-6.343-6.739s2.608-6.739,6.343-6.739s6.343,2.771,6.343,6.74 C42.203,53.968,39.595,56.739,35.86,56.739z M35.86,43.761c-3.44,0-5.843,2.565-5.843,6.239s2.402,6.239,5.843,6.239 s5.843-2.565,5.843-6.237C41.703,46.327,39.301,43.761,35.86,43.761z M35.86,54.548c-2.177,0-3.697-1.87-3.697-4.547 s1.521-4.547,3.697-4.547s3.697,1.87,3.697,4.547S38.037,54.548,35.86,54.548z M35.86,45.954c-1.883,0-3.197,1.665-3.197,4.047 s1.314,4.047,3.197,4.047s3.197-1.664,3.197-4.047S37.743,45.954,35.86,45.954z"/></svg>